<svg xmlns="http://www.w3.org/2000/svg" viewBox="0 0 280 156.8"><defs><style>.cls-1{fill:#00bcf5;}.cls-2{fill:none;}</style></defs><title>Isotipo</title><g id="Capa_2" data-name="Capa 2"><g id="Capa_1-2" data-name="Capa 1"><polygon class="cls-1" points="189.98 38.4 177.31 54.4 151.98 86.4 139.31 102.4 136 106.58 126.64 118.4 118.64 118.4 131.31 102.4 136 96.47 143.98 86.4 169.31 54.4 181.98 38.4 189.98 38.4"/><path d="M72,94.4a8,8,0,0,0,8,8h43.31l-12.67,16H76a20.25,20.25,0,0,1-4-.4,20,20,0,0,1-15.6-15.6,20.25,20.25,0,0,1-.4-4v-40a20.25,20.25,0,0,1,.4-4A20,20,0,0,1,72,38.8a20.25,20.25,0,0,1,4-.4h60v16H80a8,8,0,0,0-8,8Z"/><polygon class="cls-1" points="88 22.4 88 30.4 48 30.4 48 70.4 40 70.4 40 22.4 88 22.4"/><path d="M223.87,54.4A18,18,0,0,0,208,38.51a18.85,18.85,0,0,0-2-.11A18,18,0,0,0,192.09,45l-.53.68-6.95,8.77-25.33,32-12.67,16L136,115.8l-2.06,2.6h20.41l12.67-16h41v16h16v-62A18.85,18.85,0,0,0,223.87,54.4ZM208,86.4h-28.3L192,70.84l1.31-1.65,11-13.91.12-.15A2,2,0,0,1,206,54.4a2,2,0,0,1,2,2Z"/><polygon class="cls-1" points="240 86.4 240 134.4 192 134.4 192 126.4 232 126.4 232 86.4 240 86.4"/><rect class="cls-2" width="280" height="156.8"/></g></g></svg>